Coordinates
version=1
nRows=29
nColumns=22
inDegrees=yes

Units are S.I. units (second, meters, Newtons, ...)
If the header above contains a line with 'inDegrees', this indicates whether rotational values are in degrees (yes) or radians (no).

endheader
time	pelvis_tilt	pelvis_list	pelvis_rotation	pelvis_tx	pelvis_ty	pelvis_tz	hip_flexion_r	hip_adduction_r	hip_rotation_r	knee_angle_r	ankle_angle_r	subtalar_angle_r	hip_flexion_l	hip_adduction_l	hip_rotation_l	knee_angle_l	ankle_angle_l	subtalar_angle_l	lumbar_extension	lumbar_bending	lumbar_rotation
      1.93000000	      2.86517709	     -2.82397005	     13.18547362	      0.40447846	      0.90512198	      0.88855892	    -11.94917233	     -7.46147384	      0.62631787	    -34.27405192	    -11.93646550	     15.57902057	     21.36262232	    -13.01368345	    -34.50511363	    -31.76733809	      4.55246278	    -13.54635877	     -5.74423968	     -4.13341917	     12.28097408
      1.94000000	      3.00568715	     -2.79274408	     13.80923225	      0.41076812	      0.90659880	      0.87982559	    -10.47083349	     -7.59379136	      1.01592868	    -37.42535235	    -14.32902295	     15.17948793	     20.74843917	    -12.39994607	    -34.10706757	    -31.73124190	      5.00471515	    -13.03139511	     -5.73944619	     -4.10273058	     11.81168882
      1.95000000	      3.13591804	     -2.72402478	     14.44060841	      0.41680086	      0.90792875	      0.87125344	     -8.84840741	     -7.71936086	      1.39990845	    -40.71001234	    -16.51926108	     14.54247246	     20.10989758	    -11.75931868	    -33.78293393	    -31.63868493	      5.44405732	    -12.54107238	     -5.75500741	     -4.11031182	     11.32300762
      1.96000000	      3.23592941	     -2.61589839	     15.08687763	      0.42257602	      0.90909533	      0.86282521	     -7.09857976	     -7.84521970	      1.75467467	    -44.04339964	    -18.42100456	     13.66925221	     19.46416995	    -11.06910521	    -33.50206228	    -31.46842097	      5.88601019	    -12.09256210	     -5.77041262	     -4.15969230	     10.81509901
      1.97000000	      3.30543051	     -2.45878205	     15.76130577	      0.42810024	      0.91011670	      0.85452571	     -5.27070731	     -7.97651839	      2.07403739	    -47.32937371	    -19.96015673	     12.58999680	     18.81911429	    -10.31432817	    -33.23636681	    -31.23330138	      6.33772734	    -11.71639448	     -5.79078057	     -4.26396698	     10.27827698
      1.98000000	      3.36205180	     -2.25730099	     16.47459979	      0.43343232	      0.91106878	      0.84634230	     -3.42811481	     -8.10268139	      2.34543222	    -50.47395942	    -21.10600740	     11.54203013	     18.15482538	     -9.50281090	    -32.96497262	    -30.93202739	      6.73575467	    -11.45202013	     -5.82891399	     -4.41451603	      9.72096924
      1.99000000	      3.41298208	     -2.03815194	     17.24008679	      0.43858956	      0.91196216	      0.83825426	     -1.60457677	     -8.19583459	      2.55322691	    -53.41651570	    -21.78998127	     10.49718956	     17.48960046	     -8.66743371	    -32.65171007	    -30.60061987	      7.14863683	    -11.26688243	     -5.88241768	     -4.58080256	      9.15351230
      2.00000000	      3.44430701	     -1.79818213	     18.07395237	      0.44361420	      0.91287295	      0.83021518	      0.17535242	     -8.24837620	      2.73235137	    -56.09349928	    -22.07563034	      9.74452942	     16.81412870	     -7.77924883	    -32.25707904	    -30.18136210	      7.47455726	    -11.15139849	     -5.93330924	     -4.76817652	      8.51228970
      2.01000000	      3.48194491	     -1.58129306	     18.96628387	      0.44850630	      0.91378647	      0.82225011	      1.90626923	     -8.23074604	      2.83685299	    -58.50728406	    -21.95292144	      8.97550110	     16.14537901	     -6.91811541	    -31.77439633	    -29.75807353	      7.82297000	    -11.09677444	     -5.99829099	     -4.92660466	      7.91137960
      2.02000000	      3.52709842	     -1.36599922	     19.95372874	      0.45329399	      0.91478768	      0.81426048	      3.54707261	     -8.16402529	      2.86294108	    -60.61248742	    -21.54759881	      8.56951030	     15.44762120	     -6.03251659	    -31.15355961	    -29.25713508	      8.09526054	    -11.06770832	     -6.08094571	     -5.07125072	      7.24386267
      2.03000000	      3.58677084	     -1.17903349	     21.02156924	      0.45800018	      0.91587189	      0.80626881	      5.10432866	     -8.02968003	      2.81033556	    -62.40809792	    -20.91619394	      8.29597615	     14.72359564	     -5.17533073	    -30.43433439	    -28.70574284	      8.33389761	    -11.06113113	     -6.17496333	     -5.17205240	      6.53338553
      2.04000000	      3.65751809	     -1.01817987	     22.15912743	      0.46258181	      0.91701881	      0.79827803	      6.59493705	     -7.84476494	      2.68273724	    -63.90531291	    -20.13534626	      8.09331290	     13.97914138	     -4.34583093	    -29.61097061	    -28.11151183	      8.54227542	    -11.07406402	     -6.28337044	     -5.23423464	      5.84094568
      2.05000000	      3.74511730	     -0.87913210	     23.35967397	      0.46704243	      0.91822539	      0.79029880	      8.01419170	     -7.61648679	      2.49609268	    -65.10844570	    -19.23240854	      7.97288224	     13.20238529	     -3.55069738	    -28.69658609	    -27.47350677	      8.71863491	    -11.09753730	     -6.41299289	     -5.25870654	      5.15183898
      2.06000000	      3.85618233	     -0.77014451	     24.61185971	      0.47142670	      0.91949879	      0.78231099	      9.34765377	     -7.33568469	      2.27074135	    -66.00102498	    -18.20449496	      7.98060407	     12.37299269	     -2.80727393	    -27.72870474	    -26.76978366	      8.86443709	    -11.11707217	     -6.55244733	     -5.23298123	      4.46079149
      2.07000000	      3.98830289	     -0.67849708	     25.88722002	      0.47566952	      0.92077220	      0.77440548	     10.62237121	     -7.00806575	      2.05419026	    -66.62489715	    -17.02162351	      8.07773086	     11.51676600	     -2.12375843	    -26.72706922	    -26.05897907	      9.01283232	    -11.13297526	     -6.72140597	     -5.17625740	      3.80906550
      2.08000000	      4.10727988	     -0.60124538	     27.21973637	      0.47978581	      0.92203785	      0.76643764	     11.84991514	     -6.69053619	      1.78245133	    -66.95265354	    -15.81715978	      8.21594908	     10.63236507	     -1.44845256	    -25.62677976	    -25.25429932	      9.06492538	    -11.16208613	     -6.86766755	     -5.09838750	      3.16029819
      2.09000000	      4.24430731	     -0.54322489	     28.55055738	      0.48377729	      0.92324417	      0.75856906	     13.02169332	     -6.32432249	      1.56112270	    -67.01590886	    -14.45839826	      8.42490499	      9.72913703	     -0.84822376	    -24.53273071	    -24.45727739	      9.14171179	    -11.18853231	     -7.03285704	     -4.98937289	      2.55422053
      2.10000000	      4.38233542	     -0.50345779	     29.88869092	      0.48765842	      0.92436070	      0.75073661	     14.14646198	     -5.93763616	      1.36469541	    -66.80962773	    -13.01401502	      8.67627471	      8.81732166	     -0.30414872	    -23.43230816	    -23.64971741	      9.21861861	    -11.21502301	     -7.19030633	     -4.85591907	      1.98427051
      2.11000000	      4.51028305	     -0.47557041	     31.23111527	      0.49143372	      0.92535497	      0.74294567	     15.23289049	     -5.54422970	      1.20203487	    -66.34385040	    -11.54728201	      8.93034899	      7.91333852	      0.19349848	    -22.32312319	    -22.84630310	      9.29665292	    -11.24273253	     -7.33471362	     -4.70965534	      1.43882905
      2.12000000	      4.63084997	     -0.45089087	     32.57849671	      0.49513205	      0.92621982	      0.73516656	     16.26629814	     -5.16270832	      1.05999029	    -65.62181755	    -10.11552705	      9.16162328	      7.01118630	      0.65171308	    -21.21094082	    -22.05269527	      9.38458883	    -11.27292732	     -7.46805030	     -4.55875529	      0.91818513
      2.13000000	      4.73380709	     -0.42627130	     33.92701302	      0.49875980	      0.92692545	      0.72741802	     17.25427730	     -4.80476019	      0.93876033	    -64.65593227	     -8.77411710	      9.33232172	      6.12930512	      1.07566493	    -20.09697862	    -21.28958666	      9.49000369	    -11.29940658	     -7.58656278	     -4.41468389	      0.41264481
      2.14000000	      4.81301176	     -0.40099872	     35.27703416	      0.50232885	      0.92745660	      0.71969877	     18.19561870	     -4.48966439	      0.81109468	    -63.45150889	     -7.56935588	      9.41016358	      5.27746451	      1.46970457	    -18.98196503	    -20.56642310	      9.61810013	    -11.31544293	     -7.68529795	     -4.28402359	     -0.07594239
      2.15000000	      4.84679138	     -0.38028958	     36.61734209	      0.50585259	      0.92775964	      0.71204063	     19.11254036	     -4.23045769	      0.67508218	    -62.02666728	     -6.47839749	      9.39876779	      4.49055371	      1.83700266	    -17.90007166	    -19.91052263	      9.79514262	    -11.30960126	     -7.74279227	     -4.17953572	     -0.55032850
      2.16000000	      4.84573484	     -0.35891641	     37.95528020	      0.50931607	      0.92787451	      0.70443505	     19.97885147	     -4.04188442	      0.49237124	    -60.36892165	     -5.54315721	      9.28916319	      3.75551621	      2.18572011	    -16.80374135	    -19.31632958	     10.00877735	    -11.27495474	     -7.78305298	     -4.10355714	     -1.01926350
      2.17000000	      4.85982327	     -0.32668047	     39.29685628	      0.51276092	      0.92790820	      0.69682239	     20.72277191	     -3.89184181	      0.25839434	    -58.46312388	     -4.82533706	      8.92770356	      3.00227272	      2.49939930	    -15.67385347	    -18.75007769	     10.21979309	    -11.18122878	     -7.84925063	     -4.02515644	     -1.48039385
      2.18000000	      4.81277957	     -0.29419264	     40.63533457	      0.51619974	      0.92770203	      0.68918852	     21.42523569	     -3.81217408	      0.02187801	    -56.35855426	     -4.12396395	      8.77013117	      2.32871893	      2.80874331	    -14.59022147	    -18.27532640	     10.53578283	    -11.08059126	     -7.86114612	     -3.98973608	     -1.96321597
      2.19000000	      4.85276610	     -0.23044520	     41.98663435	      0.51966996	      0.92757567	      0.68147764	     21.89714681	     -3.72153122	     -0.26771822	    -53.98172310	     -3.65759069	      8.38774425	      1.54230719	      3.05215321	    -13.44385033	    -17.79618183	     10.79895050	    -10.90184414	     -7.97204071	     -3.91431007	     -2.44309052
      2.20000000	      4.81883591	     -0.17328213	     43.35165425	      0.52311685	      0.92720411	      0.67370452	     22.33563102	     -3.70394459	     -0.57309197	    -51.42218929	     -3.21198993	      8.27037891	      0.84726420	      3.30464383	    -12.27731066	    -17.40239332	     11.15008905	    -10.78928632	     -8.01300263	     -3.88378937	     -2.96431470
      2.21000000	      4.88994814	     -0.06357771	     44.69555558	      0.52665022	      0.92695541	      0.66587598	     22.50995076	     -3.63990148	     -0.87685116	    -48.60074083	     -2.93018054	      8.03535898	      0.00773121	      3.48454719	    -11.09105176	    -17.00641009	     11.42124392	    -10.67965031	     -8.17666675	     -3.81380675	     -3.45143554
